#!OML:ASF X:\für Bonn\!DataBase\2005_08_10_Bjorn_Final\c3d\bjorn.ASF
:FULLY-SPECIFIED
:DEGREES
201
root 23.793 16.4092 -0.606622 29.8213 -64.9794 -344.333
lowerback 61.8025 -2.20634 7.73382
upperback 17.338 -0.332521 0.649468
thorax -1.66538 -0.358939 -2.4371
lowerneck -2.50812 -1.26454 6.08223
upperneck -12.1641 -2.19913 -3.67534
head -3.65848 -1.33324 -2.239
rclavicle 1.24042e-013 3.02153e-014
rhumerus 77.7946 6.92308 -62.9267
rradius 19.7436
rwrist 20.0037
rhand -42.6199 34.4348
rfingers 7.12502
rthumb -15.4923 5.03549
lclavicle 1.24042e-013 3.02153e-014
lhumerus 64.665 -3.18534 104.969
lradius 13.2676
lwrist -57.3871
lhand -56.1989 5.48557
lfingers 7.12502
lthumb -28.5263 33.3298
rfemur -94.3796 -19.3599 20.2014
rtibia 74.5639
rfoot -19.7939 7.87515
rtoes -10.4502
lfemur -93.1807 5.10483 -32.1421
ltibia 71.6391
lfoot -13.7902 -9.76389
ltoes -2.99613
202
root 23.7863 16.4149 -0.605873 29.903 -64.8522 -344.412
lowerback 61.8385 -2.23028 7.79182
upperback 17.3631 -0.325736 0.647002
thorax -1.63276 -0.349977 -2.46629
lowerneck -2.55547 -1.25631 6.10514
upperneck -12.1496 -2.19202 -3.69433
head -3.64496 -1.33026 -2.24985
rclavicle -4.77083e-014 -4.05521e-014
rhumerus 77.8145 6.91434 -63.454
rradius 19.5889
rwrist 20.7174
rhand -42.8244 34.8739
rfingers 7.12502
rthumb -15.6892 5.49
lclavicle -4.77083e-014 -4.05521e-014
lhumerus 64.6091 -3.33953 104.646
lradius 13.2305
lwrist -57.1232
lhand -55.8869 5.74811
lfingers 7.12502
lthumb -28.2281 33.642
rfemur -94.2926 -19.3828 20.2186
rtibia 74.5187
rfoot -19.8672 7.77881
rtoes -10.6059
lfemur -93.127 5.05321 -32.0717
ltibia 71.5762
lfoot -13.7404 -9.81065
ltoes -2.83843
203
root 23.7793 16.4209 -0.605344 29.997 -64.7268 -344.53
lowerback 61.9169 -2.24763 7.83251
upperback 17.3701 -0.314744 0.662471
thorax -1.62119 -0.343735 -2.4687
lowerneck -2.61907 -1.24909 6.06618
upperneck -12.0882 -2.18668 -3.71545
head -3.6105 -1.32456 -2.24963
rclavicle -4.77083e-015 -9.54166e-015
rhumerus 77.8007 6.93792 -64.118
rradius 19.4367
rwrist 21.5416
rhand -42.9161 35.4854
rfingers 7.12502
rthumb -15.7776 6.10839
lclavicle -4.77083e-015 -9.54166e-015
lhumerus 64.5492 -3.41346 104.457
lradius 13.179
lwrist -57.0719
lhand -55.5616 6.00124
lfingers 7.12502
lthumb -27.9172 33.9461
rfemur -94.1641 -19.3877 20.233
rtibia 74.467
rfoot -19.9219 7.6921
rtoes -10.4963
lfemur -93.0521 5.02463 -31.9926
ltibia 71.5121
lfoot -13.7032 -9.87405
ltoes -2.67813
204
root 23.7719 16.4269 -0.604716 30.0975 -64.5994 -344.635
lowerback 61.9849 -2.27524 7.91172
upperback 17.3752 -0.295803 0.659047
thorax -1.6093 -0.329113 -2.51145
lowerneck -2.66962 -1.251 6.09355
upperneck -12.0658 -2.19451 -3.74256
head -3.59478 -1.32902 -2.26365
rclavicle -8.26944e-014 -1.98785e-014
rhumerus 77.7815 6.9132 -64.6125
rradius 19.315
rwrist 22.2942
rhand -43.0846 35.9505
rfingers 7.12502
rthumb -15.9398 6.58644
lclavicle -8.26944e-014 -1.98785e-014
lhumerus 64.4618 -3.52472 104.355
lradius 13.149
lwrist -57.0858
lhand -55.2076 6.17994
lfingers 7.12502
lthumb -27.5787 34.1793
rfemur -94.0687 -19.4025 20.2624
rtibia 74.4224
rfoot -19.9812 7.59994
rtoes -10.6074
lfemur -92.9925 4.98443 -31.9097
ltibia 71.4453
lfoot -13.6431 -9.91342
ltoes -2.49547
205
root 23.7644 16.4343 -0.603459 30.1089 -64.4598 -344.645
lowerback 62.0916 -2.32083 7.96346
upperback 17.3423 -0.297744 0.66971
thorax -1.64279 -0.328159 -2.5174
lowerneck -2.67714 -1.25745 6.02855
upperneck -12.0257 -2.20088 -3.72503
head -3.57768 -1.32901 -2.24522
rclavicle -3.49861e-014 -1.98785e-014
rhumerus 77.7517 6.94139 -65.125
rradius 19.1705
rwrist 23.0873
rhand -43.2911 36.4607
rfingers 7.12502
rthumb -16.1386 7.11266
lclavicle -3.49861e-014 -1.98785e-014
lhumerus 64.3647 -3.69076 103.993
lradius 13.122
lwrist -56.7395
lhand -54.822 6.23194
lfingers 7.12502
lthumb -27.2099 34.2896
rfemur -93.9636 -19.4575 20.2577
rtibia 74.3742
rfoot -20.0468 7.54595
rtoes -10.4726
lfemur -92.9105 4.91114 -31.8646
ltibia 71.3712
lfoot -13.6155 -9.95672
ltoes -2.42493
206
root 23.757 16.4406 -0.60248 30.1876 -64.3448 -344.727
lowerback 62.1637 -2.34622 8.03407
upperback 17.3408 -0.280002 0.661099
thorax -1.63874 -0.314185 -2.56155
lowerneck -2.7215 -1.25414 6.05143
upperneck -11.9846 -2.19952 -3.74561
head -3.55578 -1.32826 -2.25624
rclavicle 7.63333e-014 4.37326e-014
rhumerus 77.7175 6.93636 -65.5519
rradius 19.0696
rwrist 23.7858
rhand -43.5462 36.9174
rfingers 7.12502
rthumb -16.3843 7.58945
lclavicle 7.63333e-014 4.37326e-014
lhumerus 64.3092 -3.91503 103.605
lradius 13.0756
lwrist -56.4425
lhand -54.3995 6.39093
lfingers 7.12502
lthumb -26.8056 34.5113
rfemur -93.8722 -19.4618 20.269
rtibia 74.3282
rfoot -20.1024 7.42898
rtoes -10.6272
lfemur -92.8456 4.87387 -31.8074
ltibia 71.3027
lfoot -13.6019 -9.98787
ltoes -2.45284
